<svg version="1.1" id="Layer_1" xmlns="http://www.w3.org/2000/svg" x="0px" y="0px" viewBox="0 0 48 48" style="enable-background:new 0 0 48 48;" xml:space="preserve">
<path class="st0" d="M47,28h-0.734C44.42,24.48,38.964,18,29,18c-0.314,0-0.611,0.148-0.8,0.4L25.5,22h-0.526
	C25.609,21.162,26,20.13,26,19c0-2.757-2.243-5-5-5c-0.695,0-1.374,0.151-2,0.429V14c0-0.552-0.447-1-1-1
	c-3.033,0-5.994,1.315-8.114,3.497l-0.938-2.813C8.813,13.275,8.431,13,8,13l-7,0.001c-0.553,0-1,0.448-1,1V26c0,0.552,0.447,1,1,1
	h0.295C1.105,27.634,1,28.305,1,29c0,3.86,3.141,7,7,7c2.372,0,4.47-1.189,5.736-3h16.528c1.267,1.811,3.364,3,5.736,3
	s4.47-1.189,5.736-3H47c0.553,0,1-0.448,1-1v-3C48,28.448,47.553,28,47,28z M43.758,27.727c-0.381-0.357-0.76-0.687-1.137-0.981
	c-0.113-0.331-0.249-0.651-0.408-0.958C42.839,26.472,43.348,27.133,43.758,27.727z M29.495,20.006
	c3.323,0.082,6.054,0.988,8.252,2.223C37.188,22.085,36.604,22,36,22c-1.04,0-2.024,0.234-2.912,0.643
	c-1.604-0.311-3.315-0.516-5.121-0.598L29.495,20.006z M22,18h1.816C23.928,18.314,24,18.648,24,19h-2V18z M21,16
	c-0.553,0-1,0.448-1,1v3c0,0.552,0.447,1,1,1h2.22c-0.549,0.609-1.337,1-2.22,1c-0.752,0-1.445-0.294-2-0.807v-4.386
	C19.555,16.294,20.248,16,21,16z M17,15.057V22h-5.28l-1.102-3.307C12.165,16.678,14.509,15.341,17,15.057z M2,25v-9.999L7.279,15
	l2.404,7.213C9.143,22.079,8.582,22,8,22c-2.372,0-4.47,1.189-5.736,3H2z M8,34c-2.757,0-5-2.243-5-5s2.243-5,5-5s5,2.243,5,5
	S10.757,34,8,34z M14.92,28H19c3.339,0,5.266,1.716,6.244,3H14.705C14.895,30.366,15,29.695,15,29C15,28.66,14.968,28.328,14.92,28z
	 M27.623,31c-0.804-1.473-3.285-5-8.623-5h-4.685c-0.357-0.749-0.839-1.426-1.425-2H26c1.69,0,3.299,0.109,4.823,0.306
	C29.694,25.549,29,27.193,29,29c0,0.695,0.105,1.366,0.295,2H27.623z M36,34c-2.757,0-5-2.243-5-5s2.243-5,5-5s5,2.243,5,5
	S38.757,34,36,34z M46,31h-3.295c0.097-0.324,0.166-0.659,0.215-1H46V31z M36,26c-1.654,0-3,1.346-3,3s1.346,3,3,3s3-1.346,3-3
	S37.654,26,36,26z M36,30c-0.552,0-1-0.449-1-1s0.448-1,1-1s1,0.449,1,1S36.552,30,36,30z M8,26c-1.654,0-3,1.346-3,3s1.346,3,3,3
	s3-1.346,3-3S9.654,26,8,26z M8,30c-0.552,0-1-0.449-1-1s0.448-1,1-1s1,0.449,1,1S8.552,30,8,30z" id="id_101"></path>
</svg>